<svg width="70" height="70" viewBox="0 0 70 70" fill="none" xmlns="http://www.w3.org/2000/svg">
    <path d="M34.9179 53.2741C34.622 53.2741 34.33 53.1744 34.0958 52.9934C33.9725 52.8986 31.0129 50.6285 27.3344 48.5266C22.8478 45.9627 20.8264 43.9852 19.6964 42.7207C17.193 39.9197 15.9178 36.7358 15.9061 33.2573C15.8965 30.424 16.8294 27.9853 18.6038 26.2049C20.4026 24.4001 23.0289 23.365 25.8093 23.365C27.6845 23.365 29.5117 23.8247 31.0932 24.6944C32.9093 25.693 34.1287 27.0476 34.9179 28.2261C35.7071 27.0476 36.9266 25.693 38.7427 24.6944C40.3243 23.8247 42.1514 23.365 44.0266 23.365C46.8068 23.365 49.4331 24.4002 51.2319 26.2051C53.0064 27.9856 53.9394 30.4243 53.9298 33.2573C53.9181 36.7359 52.6428 39.9198 50.1395 42.7207C49.0094 43.9852 46.9881 45.9628 42.5015 48.5266C38.8019 50.6406 35.77 52.9705 35.7398 52.9938C35.5059 53.1744 35.2139 53.2741 34.9179 53.2741ZM25.8093 24.6276C23.362 24.6276 21.0617 25.5274 19.4981 27.0962C17.9658 28.6338 17.1603 30.7627 17.1687 33.253C17.1927 40.3665 22.9488 44.5662 27.9608 47.4303C31.7137 49.5747 34.7399 51.8959 34.8669 51.9936C34.8861 52.0085 34.9051 52.0114 34.918 52.0114C34.9308 52.0114 34.95 52.0085 34.9684 51.9943C34.9995 51.9703 38.0983 49.5884 41.8751 47.4303C46.8871 44.5662 52.6433 40.3665 52.6673 33.253C52.6757 30.763 51.8701 28.634 50.3377 27.0964C48.774 25.5275 46.4737 24.6276 44.0267 24.6276C42.3636 24.6276 40.7468 25.0333 39.3511 25.8008C37.306 26.9253 36.1132 28.5668 35.4727 29.7459C35.3622 29.9493 35.1493 30.0759 34.9179 30.0759C34.6866 30.0759 34.4737 29.9493 34.3632 29.7459C33.7226 28.5668 32.5298 26.9253 30.4848 25.8008C29.0891 25.0333 27.4724 24.6276 25.8093 24.6276Z" fill="#E97912" stroke="#E97912" stroke-width="0.4"/>
    <path d="M50.6454 35.1583C50.6447 35.1583 50.6441 35.1583 50.6432 35.1583C50.2946 35.1571 50.0129 34.8735 50.0141 34.5249C50.0225 32.0358 48.9647 30.0344 47.0356 28.8893C45.9926 28.2702 44.7553 27.9385 43.4574 27.9302C43.4388 27.9301 43.4199 27.93 43.4014 27.93C42.1339 27.93 40.9018 28.2396 39.8339 28.8268C39.5283 28.9949 39.1446 28.8832 38.9765 28.5778C38.8086 28.2723 38.92 27.8884 39.2255 27.7204C40.4794 27.031 41.9218 26.6674 43.401 26.6674C43.4227 26.6674 43.4442 26.6674 43.466 26.6676C44.9873 26.6775 46.4446 27.0703 47.68 27.8036C50.0093 29.1863 51.2866 31.5748 51.2766 34.5292C51.2755 34.877 50.993 35.1583 50.6454 35.1583Z" fill="#E97912" stroke="#E97912" stroke-width="0.4"/>
    <path d="M24.618 59C24.2693 59 23.9866 58.7174 23.9866 58.3687V55.3593C23.9866 53.2574 22.9405 51.5826 20.9615 50.5163C19.4727 49.7142 17.9651 49.5349 17.9501 49.5331C17.947 49.5327 17.9439 49.5326 17.9406 49.5326C14.5215 49.5326 11.641 47.0871 11.0915 43.7177C11.091 43.7152 11.0905 43.7128 11.0899 43.7103C11.0302 43.4739 11 43.2297 11 42.985V18.936C11 18.7565 11.0765 18.5854 11.2103 18.4656C11.3441 18.3459 11.5226 18.2887 11.701 18.3086C13.1658 18.4713 14.5387 19.0598 15.5671 19.9657C16.7079 20.9708 17.3363 22.313 17.3363 23.745V30.5677C17.3363 30.9163 17.0536 31.199 16.705 31.199C16.3563 31.199 16.0736 30.9163 16.0736 30.5677V23.7451C16.0736 22.0663 14.7679 20.2235 12.2626 19.6778V42.985C12.2626 43.1258 12.28 43.2662 12.3144 43.4023C12.3237 43.4396 12.3315 43.4773 12.3376 43.5145C12.787 46.27 15.1434 48.27 17.9406 48.27C17.9917 48.27 18.043 48.2729 18.0934 48.2787C18.1646 48.2868 19.8599 48.4885 21.5603 49.4048C23.9737 50.7051 25.2493 52.7641 25.2493 55.3593V58.3687C25.2493 58.7173 24.9666 59 24.618 59Z" fill="#E97912" stroke="#E97912" stroke-width="0.4"/>
    <path d="M20.4686 25.9292C20.12 25.9292 19.8373 25.6466 19.8373 25.2979V13.2804C19.8373 12.2964 19.0367 11.4959 18.0528 11.4959C17.0689 11.4959 16.2684 12.2964 16.2684 13.2804V20.587C16.2684 20.9357 15.9857 21.2183 15.6371 21.2183C15.2884 21.2183 15.0057 20.9357 15.0057 20.587V13.2804C15.0057 11.6002 16.3726 10.2333 18.0528 10.2333C19.733 10.2333 21.0999 11.6002 21.0999 13.2804V25.2979C21.0999 25.6466 20.8173 25.9292 20.4686 25.9292Z" fill="#E97912" stroke="#E97912" stroke-width="0.4"/>
    <path d="M20.4686 25.9292C20.12 25.9292 19.8373 25.6465 19.8373 25.2978V10.0471C19.8373 8.36688 21.2042 7 22.8844 7C24.5645 7 25.9314 8.36688 25.9314 10.0471V23.9963C25.9314 24.345 25.6487 24.6276 25.3001 24.6276C24.9515 24.6276 24.6688 24.345 24.6688 23.9963V10.0471C24.6688 9.06316 23.8683 8.26265 22.8844 8.26265C21.9004 8.26265 21.0999 9.06316 21.0999 10.0471V25.2978C21.0999 25.6465 20.8173 25.9292 20.4686 25.9292Z" fill="#E97912" stroke="#E97912" stroke-width="0.4"/>
    <path d="M30.1316 25.5399C29.7829 25.5399 29.5003 25.2572 29.5003 24.9086V10.0471C29.5003 9.06316 28.6998 8.26265 27.7158 8.26265C26.7319 8.26265 25.9313 9.06316 25.9313 10.0471V23.9963C25.9313 24.345 25.6486 24.6276 25.3 24.6276C24.9514 24.6276 24.6687 24.345 24.6687 23.9963V10.0471C24.6688 8.36688 26.0357 7 27.7158 7C29.396 7 30.7629 8.36688 30.7629 10.0471V24.9086C30.7629 25.2572 30.4802 25.5399 30.1316 25.5399Z" fill="#E97912" stroke="#E97912" stroke-width="0.4"/>
    <path d="M34.963 30.0014C34.6143 30.0014 34.3316 29.7187 34.3316 29.3701V13.7201C34.3316 12.7361 33.5311 11.9356 32.5472 11.9356C31.5633 11.9356 30.7628 12.7361 30.7628 13.7201V24.9086C30.7628 25.2573 30.4801 25.5399 30.1314 25.5399C29.7828 25.5399 29.5001 25.2573 29.5001 24.9086V13.7201C29.5001 12.0399 30.867 10.673 32.5472 10.673C34.2273 10.673 35.5943 12.0399 35.5943 13.7201V29.3701C35.5943 29.7187 35.3116 30.0014 34.963 30.0014Z" fill="#E97912" stroke="#E97912" stroke-width="0.4"/>
    <path d="M45.3082 58.9999C44.9595 58.9999 44.6769 58.7173 44.6769 58.3686V55.3593C44.6769 52.764 45.9525 50.705 48.3658 49.4047C50.0662 48.4885 51.7616 48.2868 51.8329 48.2786C51.8829 48.2729 51.9344 48.27 51.9856 48.27C54.7828 48.27 57.1392 46.27 57.5886 43.5144C57.5947 43.4772 57.6025 43.4397 57.6117 43.4027C57.6461 43.2662 57.6634 43.1259 57.6634 42.985V19.6778C55.1582 20.2235 53.8525 22.0663 53.8525 23.7451V30.5677C53.8525 30.9164 53.5699 31.199 53.2212 31.199C52.8726 31.199 52.5899 30.9164 52.5899 30.5677V23.7451C52.5899 22.313 53.2182 20.9708 54.3591 19.9657C55.3874 19.0598 56.7603 18.4713 58.2251 18.3086C58.4038 18.2885 58.582 18.3459 58.7157 18.4657C58.8496 18.5855 58.926 18.7565 58.926 18.9361V42.985C58.926 43.2298 58.8958 43.474 58.8361 43.7108C58.8356 43.7127 58.8351 43.7152 58.8347 43.7176C58.2851 47.0871 55.4046 49.5326 51.9855 49.5326C51.9823 49.5326 51.9791 49.5328 51.9764 49.5331C51.961 49.5348 50.4532 49.7141 48.9646 50.5162C46.9855 51.5826 45.9395 53.2572 45.9395 55.3593V58.3686C45.9395 58.7172 45.6568 58.9999 45.3082 58.9999Z" fill="#E97912" stroke="#E97912" stroke-width="0.4"/>
    <path d="M49.4573 25.9292C49.1086 25.9292 48.8259 25.6466 48.8259 25.2979V13.2804C48.8259 11.6002 50.1928 10.2333 51.873 10.2333C53.5531 10.2333 54.9201 11.6002 54.9201 13.2804V20.587C54.9201 20.9357 54.6374 21.2183 54.2888 21.2183C53.9401 21.2183 53.6575 20.9357 53.6575 20.587V13.2804C53.6575 12.2964 52.857 11.4959 51.873 11.4959C50.8891 11.4959 50.0886 12.2964 50.0886 13.2804V25.2979C50.0886 25.6466 49.8059 25.9292 49.4573 25.9292Z" fill="#E97912" stroke="#E97912" stroke-width="0.4"/>
    <path d="M49.4576 25.9292C49.1089 25.9292 48.8263 25.6465 48.8263 25.2978V10.0471C48.8263 9.06316 48.0258 8.26265 47.0418 8.26265C46.0579 8.26265 45.2574 9.06316 45.2574 10.0471V23.9963C45.2574 24.345 44.9747 24.6276 44.6261 24.6276C44.2774 24.6276 43.9948 24.345 43.9948 23.9963V10.0471C43.9948 8.36688 45.3617 7 47.0419 7C48.722 7 50.089 8.36688 50.089 10.0471V25.2978C50.0889 25.6465 49.8063 25.9292 49.4576 25.9292Z" fill="#E97912" stroke="#E97912" stroke-width="0.4"/>
    <path d="M39.7945 25.5399C39.4459 25.5399 39.1632 25.2572 39.1632 24.9086V10.0471C39.1632 8.36688 40.5301 7 42.2102 7C43.8904 7 45.2573 8.36688 45.2573 10.0471V23.9963C45.2573 24.345 44.9746 24.6276 44.626 24.6276C44.2773 24.6276 43.9947 24.345 43.9947 23.9963V10.0471C43.9947 9.06316 43.1941 8.26265 42.2102 8.26265C41.2263 8.26265 40.4258 9.06316 40.4258 10.0471V24.9086C40.4259 25.2572 40.1431 25.5399 39.7945 25.5399Z" fill="#E97912" stroke="#E97912" stroke-width="0.4"/>
    <path d="M34.963 30.0014C34.6144 30.0014 34.3317 29.7187 34.3317 29.3701V13.7201C34.3317 12.0399 35.6985 10.673 37.3788 10.673C39.0589 10.673 40.4258 12.0399 40.4258 13.7201V24.9086C40.4258 25.2573 40.1431 25.5399 39.7945 25.5399C39.4459 25.5399 39.1632 25.2573 39.1632 24.9086V13.7201C39.1632 12.7361 38.3627 11.9356 37.3788 11.9356C36.3948 11.9356 35.5943 12.7361 35.5943 13.7201V29.3701C35.5943 29.7187 35.3117 30.0014 34.963 30.0014Z" fill="#E97912" stroke="#E97912" stroke-width="0.4"/>
</svg>
