<svg width="70" height="70" viewBox="0 0 70 70" fill="none" xmlns="http://www.w3.org/2000/svg">
    <path d="M35.1875 10V11.625" stroke="#E97912" stroke-width="1.5" stroke-miterlimit="10" stroke-linecap="round" stroke-linejoin="round"/>
    <path d="M29.5 18.9375C27.875 20.5625 25.3026 26.1752 26.25 32.75" stroke="#E97912" stroke-width="1.5" stroke-miterlimit="10" stroke-linecap="round" stroke-linejoin="round"/>
    <path d="M40.875 18.9375C43.3125 21.375 45.0724 26.1752 44.125 32.75" stroke="#E97912" stroke-width="1.5" stroke-miterlimit="10" stroke-linecap="round" stroke-linejoin="round"/>
    <path d="M60.375 32.75C60.375 21.0813 49.0981 11.625 35.1875 11.625C21.2769 11.625 10 21.0813 10 32.75C10 32.75 17.5313 27.9481 26.25 32.75C26.25 32.75 35.4063 27.9481 44.125 32.75C44.125 32.75 51.6563 27.9481 60.375 32.75Z" stroke="#E97912" stroke-width="1.5" stroke-miterlimit="10" stroke-linecap="round" stroke-linejoin="round"/>
    <path d="M35.1875 30.623V38.4289" stroke="#E97912" stroke-width="1.5" stroke-miterlimit="10" stroke-linecap="round" stroke-linejoin="round"/>
    <path d="M28.6875 50.625L26.25 49.8125C26.25 49.8125 24.625 51.4375 22.1875 51.4375C19.75 51.4375 18.125 49.8125 18.125 49.8125L16.7096 50.1663C13.614 50.9403 11.258 53.4545 10.6866 56.594L10 60.3665" stroke="#E97912" stroke-width="1.5" stroke-miterlimit="10" stroke-linecap="round" stroke-linejoin="round"/>
    <path d="M24.625 47.375C26.8884 45.866 26.6788 44.8969 26.9479 42.7015C27.0931 41.5167 27.1374 40.2402 26.5656 39.1525C26.042 38.1568 25.0808 37.4672 24.03 37.1125C23.4535 36.9181 22.8232 36.8127 22.1875 36.8125C21.5517 36.8127 20.9214 36.9181 20.3449 37.1125C19.2942 37.4672 18.333 38.1568 17.8093 39.1525C17.2375 40.24 17.2818 41.5167 17.427 42.7015C17.6962 44.8969 17.4865 45.866 19.75 47.375" stroke="#E97912" stroke-width="1.5" stroke-miterlimit="10" stroke-linecap="round" stroke-linejoin="round"/>
    <path d="M42.5 53.0625L44.9375 52.25C44.9375 52.25 46.5625 53.875 49 53.875C51.4375 53.875 53.0625 52.25 53.0625 52.25L54.2378 52.5858C57.0297 53.3834 59.1839 55.6105 59.8881 58.4276L60.375 60.375" stroke="#E97912" stroke-width="1.5" stroke-miterlimit="10" stroke-linecap="round" stroke-linejoin="round"/>
    <path d="M46.5625 49.8125C44.299 48.3035 44.5087 47.3344 44.2395 45.139C44.0943 43.9542 44.05 42.6777 44.6218 41.59C45.1453 40.5943 46.1067 39.9047 47.1574 39.55C47.7339 39.3554 48.3642 39.2502 49 39.25C49.6357 39.2502 50.266 39.3556 50.8425 39.55C51.8933 39.9047 52.8545 40.5943 53.3781 41.59C53.9499 42.6775 53.9056 43.9542 53.7604 45.139C53.4913 47.3344 53.7009 48.3035 51.4375 49.8125" stroke="#E97912" stroke-width="1.5" stroke-miterlimit="10" stroke-linecap="round" stroke-linejoin="round"/>
    <path d="M25.8953 60.375L26.7758 58.568C27.4833 57.1165 28.7055 55.9802 30.2048 55.3806L31.9376 54.6875C31.9376 54.6875 33.1964 55.5 35.1876 55.5C37.1789 55.5 38.4376 54.6875 38.4376 54.6875L40.1705 55.3806C41.6698 55.9802 42.8922 57.1165 43.5994 58.568L44.48 60.375" stroke="#E97912" stroke-width="1.5" stroke-miterlimit="10" stroke-linecap="round" stroke-linejoin="round"/>
    <path d="M33.1964 51.7826C31.3473 50.55 31.5186 49.7583 31.2988 47.9649C31.1802 46.997 31.144 45.9541 31.6112 45.0657C32.039 44.2521 32.8242 43.6889 33.6824 43.3992C34.1533 43.2402 34.6682 43.1543 35.1876 43.1541C35.707 43.1543 36.2219 43.2402 36.6928 43.3992C37.5512 43.6891 38.3364 44.2523 38.764 45.0657C39.2312 45.9541 39.1949 46.997 39.0762 47.9649C38.8564 49.7583 39.0277 50.55 37.1786 51.7826" stroke="#E97912" stroke-width="1.5" stroke-miterlimit="10" stroke-linecap="round" stroke-linejoin="round"/>
</svg>
