<svg width="70" height="70" viewBox="0 0 70 70" fill="none" xmlns="http://www.w3.org/2000/svg">
    <path d="M56.0434 21.1924C56.041 21.1899 56.0373 21.1875 56.0349 21.185C55.0713 20.2337 53.5717 19.5371 51.2417 19.5347C48.9116 19.5371 47.4119 20.2336 46.4485 21.185C46.446 21.1875 46.4424 21.1899 46.4399 21.1924" stroke="#E97912" stroke-width="1.5" stroke-miterlimit="10" stroke-linejoin="round"/>
    <path d="M54.0703 38.0066C54.2727 38.9729 54.3949 39.5621 54.8945 40.1725L63.0427 43.4082C63.8061 43.7413 64.3955 44.3845 64.6573 45.1804C65.0297 46.3122 65.5224 49.8606 65.8421 53.1185" stroke="#E97912" stroke-width="1.5" stroke-miterlimit="10" stroke-linejoin="round"/>
    <path d="M44.9648 28.4697C49.292 27.8337 52.2405 27.1056 54.2995 23.7911C54.35 23.7098 54.4427 23.6655 54.5371 23.6775C54.6316 23.6895 54.7105 23.7557 54.7393 23.8471C55.1284 25.0824 56.1898 28.0855 57.4909 28.7316L57.4906 28.7317C56.9765 33.5511 56.129 36.1589 53.7842 38.2511C53.2407 38.6954 52.8122 38.9033 52.1527 39.0068C52.1527 39.0068 52.1002 39.0153 52.0184 39.0289C51.8694 39.0523 51.7497 39.0694 51.6301 39.0818C51.5104 39.0941 51.3907 39.099 51.2417 39.1002C50.9413 39.099 50.7643 39.0756 50.4651 39.0289C50.3832 39.0153 50.3308 39.0068 50.3308 39.0068C49.6713 38.9033 49.2427 38.6954 48.6992 38.2511C46.3118 36.1208 45.4777 33.4575 44.966 28.4695L44.9648 28.4697Z" stroke="#E97912" stroke-width="1.5" stroke-miterlimit="10" stroke-linejoin="round"/>
    <path d="M56.0348 21.1851C62.7206 26.9453 58.9141 36.209 59.0689 38.3024C59.1279 39.1017 58.0355 39.2696 56.9046 39.3854" stroke="#E97912" stroke-width="1.5" stroke-miterlimit="10" stroke-linejoin="round"/>
    <path d="M47.9798 39.5547C47.9798 39.5547 47.9798 39.5547 47.9779 39.5547" stroke="#E97912" stroke-width="1.5" stroke-miterlimit="10" stroke-linejoin="round"/>
    <path d="M46.4477 21.1851C39.7618 26.9453 43.5684 36.209 43.4151 38.3024C43.3561 39.1017 44.4471 39.2696 45.5778 39.3854" stroke="#E97912" stroke-width="1.5" stroke-miterlimit="10" stroke-linejoin="round"/>
    <path d="M47.5889 40.1726L50.3872 42.1954C50.8975 42.5643 51.5852 42.5647 52.0955 42.1958L54.8944 40.1726" stroke="#E97912" stroke-width="1.5" stroke-miterlimit="10" stroke-linejoin="round"/>
    <path d="M48.4136 38.0056C48.2779 38.6504 48.1776 39.1274 47.9786 39.5537V39.5553C47.8799 39.7692 47.7561 39.9683 47.5894 40.1719L39.9723 43.2376" stroke="#E97912" stroke-width="1.5" stroke-miterlimit="10" stroke-linejoin="round"/>
    <path d="M5.00012 55.3445C5.3779 51.3596 6.07745 46.9335 6.58964 45.5067C6.9096 44.6152 7.62585 43.8932 8.5554 43.5154L17.9816 39.8687L22.0747 42.585C22.676 42.9443 23.4501 42.9397 24.0465 42.5736L27.9977 39.8687L37.5597 43.5177C38.4974 43.8934 39.2213 44.6187 39.5429 45.5162C40.0548 46.9448 40.752 51.3684 41.1291 55.3445" stroke="#E97912" stroke-width="1.5" stroke-miterlimit="10" stroke-linejoin="round"/>
    <path d="M16.1662 47.0944C15.3264 45.0847 15.0735 42.9363 15.6508 40.7712" stroke="#E97912" stroke-width="1.5" stroke-miterlimit="10" stroke-linejoin="round"/>
    <path d="M18.728 48.4423C18.728 49.3424 17.994 50.0721 17.0887 50.0721C16.1834 50.0721 15.4495 49.3424 15.4495 48.4423C15.4495 47.5422 16.1834 46.8125 17.0887 46.8125C17.994 46.8125 18.728 47.5422 18.728 48.4423Z" stroke="#E97912" stroke-width="1.5" stroke-miterlimit="10" stroke-linejoin="round"/>
    <path d="M30.4908 40.8213C30.8207 42.1023 30.7987 43.4291 30.6049 44.6685" stroke="#E97912" stroke-width="1.5" stroke-miterlimit="10" stroke-linejoin="round"/>
    <path d="M26.327 53.0813L26.0741 54.0744C25.1486 53.8726 24.3706 52.9945 24.6394 52.1247L26.5501 46.843C27.157 45.268 28.6065 44.2312 30.5158 44.6475H30.5161C32.4255 45.0638 33.2223 46.5904 33.0054 48.2505L32.1667 53.7659C31.9874 54.6553 30.8678 55.1196 29.9421 54.9178L30.195 53.9246" stroke="#E97912" stroke-width="1.5" stroke-miterlimit="10" stroke-linecap="round" stroke-linejoin="round"/>
    <path d="M13.8985 26.1845C13.8776 25.2758 13.8268 23.1774 13.7775 22.4637C13.7745 20.0039 14.411 15.0055 19.016 14.9919C20.4817 14.9873 20.0723 14 22.8992 14C31.5518 13.9955 32.269 19.7362 32.269 22.4637C32.1838 23.1304 32.1644 25.2048 32.1599 26.1935" stroke="#E97912" stroke-width="1.5" stroke-miterlimit="10" stroke-linejoin="round"/>
    <path d="M23.0232 37.7885C23.5004 37.7885 23.7741 37.7613 24.1481 37.7054C24.2514 37.6904 24.3172 37.6798 24.3172 37.6798C25.1444 37.5575 25.828 37.4517 26.5146 36.9336C26.8825 36.6557 27.252 36.343 27.6096 36.0076C28.6417 35.044 29.5826 33.9006 30.0971 32.9294L30.7957 31.0339C30.8645 30.8465 30.9752 30.682 31.1233 30.549C32.4427 29.3603 33.3058 26.6657 31.8444 25.9875C31.8444 25.9875 31.24 26.3063 30.7688 25.6432C30.5118 25.2814 30.2098 24.757 30.0505 24.0292C30.0166 23.8743 29.8703 23.7728 29.7148 23.7959C24.1501 24.6237 19.8542 21.7825 18.4745 20.7072C18.3578 20.6166 18.2052 20.5849 18.0616 20.6211C17.918 20.6559 17.7655 20.7465 17.7385 20.893C17.6158 21.5546 17.4512 22.1769 17.2418 22.7644C16.7481 24.1601 16.1513 25.1191 15.2867 26.0254C14.814 26.5208 14.2023 25.9876 14.2023 25.9876C12.7408 26.6658 13.6024 29.3604 14.9233 30.5491C15.0699 30.682 15.1821 30.8466 15.2509 31.034L15.9495 32.9295C16.4656 33.9023 17.405 35.0441 18.4371 36.0077C18.796 36.3431 19.1655 36.6572 19.532 36.9337C20.2171 37.4518 20.9022 37.5575 21.7279 37.6799C21.7279 37.6799 21.7952 37.6905 21.8969 37.7055C22.2723 37.7613 22.546 37.7885 23.0232 37.7885Z" stroke="#E97912" stroke-width="1.5" stroke-miterlimit="10" stroke-linejoin="round"/>
    <path d="M27.6044 36.0056C27.6755 37.3548 27.7458 38.84 27.9972 39.8687" stroke="#E97912" stroke-width="1.5" stroke-miterlimit="10" stroke-linejoin="round"/>
    <path d="M18.4415 36.0056C18.3703 37.3548 18.2325 38.84 17.9811 39.8687" stroke="#E97912" stroke-width="1.5" stroke-miterlimit="10" stroke-linejoin="round"/>
    <path d="M53.5372 50.5365V48.9834H58.5497V50.5365" stroke="#E97912" stroke-width="1.5" stroke-miterlimit="10" stroke-linejoin="round"/>
</svg>
