<svg width="70" height="70" viewBox="0 0 70 70" fill="none" xmlns="http://www.w3.org/2000/svg">
    <path d="M35.2188 60C28.6477 60 23.5 49.0187 23.5 35C23.5 29.4805 24.3086 24.2578 25.8391 19.8977L27.3133 20.4148C25.8406 24.6109 25.0625 29.6539 25.0625 35C25.0625 47.7047 29.7133 58.4375 35.2188 58.4375C40.7242 58.4375 45.375 47.7047 45.375 35C45.375 22.2953 40.7242 11.5625 35.2188 11.5625C34.1 11.5625 32.9914 12.0055 31.9227 12.8797L30.9336 11.6703C32.2883 10.5617 33.7305 10 35.2188 10C41.7898 10 46.9375 20.9812 46.9375 35C46.9375 49.0187 41.7898 60 35.2188 60Z" fill="#E97912"/>
    <path d="M48.3445 51.1711C43.0922 51.1711 36.2359 49.1187 29.3594 45.1492C23.6633 41.8601 18.8781 37.7554 15.8867 33.5914C12.768 29.2508 11.9445 25.3117 13.568 22.5C16.8531 16.8093 28.9383 17.8422 41.0781 24.8508C45.8906 27.6297 50.0289 30.964 53.0445 34.4937L51.8562 35.5086C48.9547 32.1125 44.9578 28.8953 40.2969 26.2039C29.2961 19.8531 17.6742 18.514 14.9211 23.2812C13.6414 25.4968 14.4555 28.9226 17.1547 32.6797C20.0195 36.6679 24.6312 40.6156 30.1398 43.7961C41.1437 50.1484 52.7648 51.4867 55.5156 46.7187C56.018 45.8492 56.207 44.8047 56.0789 43.6133L57.632 43.4453C57.7969 44.9734 57.5406 46.3375 56.8687 47.4992C55.4453 49.9672 52.3641 51.1711 48.3445 51.1711Z" fill="#E97912"/>
    <path d="M22.0929 51.1711C18.0726 51.1711 14.9929 49.9672 13.5679 47.5C12.8961 46.3352 12.6398 44.9711 12.8047 43.4438L14.3578 43.6125C14.2297 44.8024 14.4187 45.8477 14.9211 46.7188C17.6742 51.4875 29.2953 50.1485 40.2969 43.7961C45.8055 40.6156 50.4172 36.668 53.282 32.6797C55.9812 28.9227 56.7953 25.4977 55.5156 23.2813C52.764 18.5133 41.1422 19.8532 30.1406 26.2047C25.4797 28.8953 21.4836 32.1125 18.5828 35.5078L17.3945 34.493C20.4094 30.9641 24.5469 27.6305 29.3594 24.8516C41.4992 17.843 53.5828 16.8094 56.8695 22.5C58.493 25.3117 57.6695 29.2508 54.5508 33.5914C51.5594 37.7563 46.7742 41.8602 41.0781 45.1492C34.2023 49.1188 27.3445 51.1711 22.0929 51.1711Z" fill="#E97912"/>
    <path d="M14.125 44.375C12.4016 44.375 11 42.9734 11 41.25C11 39.5266 12.4016 38.125 14.125 38.125C15.8484 38.125 17.25 39.5266 17.25 41.25C17.25 42.9734 15.8484 44.375 14.125 44.375ZM14.125 39.6875C13.2633 39.6875 12.5625 40.3883 12.5625 41.25C12.5625 42.1117 13.2633 42.8125 14.125 42.8125C14.9859 42.8125 15.6875 42.1117 15.6875 41.25C15.6875 40.3883 14.9859 39.6875 14.125 39.6875Z" fill="#E97912"/>
    <path d="M56.3125 44.375C54.5891 44.375 53.1875 42.9734 53.1875 41.25C53.1875 39.5266 54.5891 38.125 56.3125 38.125C58.0359 38.125 59.4375 39.5266 59.4375 41.25C59.4375 42.9734 58.0359 44.375 56.3125 44.375ZM56.3125 39.6875C55.4508 39.6875 54.75 40.3883 54.75 41.25C54.75 42.1117 55.4508 42.8125 56.3125 42.8125C57.1734 42.8125 57.875 42.1117 57.875 41.25C57.875 40.3883 57.1734 39.6875 56.3125 39.6875Z" fill="#E97912"/>
    <path d="M29.75 17.0312C28.0266 17.0312 26.625 15.6297 26.625 13.9062C26.625 12.1828 28.0266 10.7812 29.75 10.7812C31.4734 10.7812 32.875 12.1828 32.875 13.9062C32.875 15.6297 31.4734 17.0312 29.75 17.0312ZM29.75 12.3438C28.8883 12.3438 28.1875 13.0445 28.1875 13.9062C28.1875 14.768 28.8883 15.4688 29.75 15.4688C30.6109 15.4688 31.3125 14.768 31.3125 13.9062C31.3125 13.0445 30.6109 12.3438 29.75 12.3438Z" fill="#E97912"/>
    <path d="M28.9687 41.25H27.4062C27.4062 37.0188 30.9 35.3188 32.7469 35.011L33.0031 36.5524C32.8414 36.5797 28.9687 37.2977 28.9687 41.25Z" fill="#E97912"/>
    <path d="M43.0312 41.25H41.4687C41.4687 37.2703 37.5992 36.5789 37.4343 36.5515L37.6906 35.0101C39.5375 35.3187 43.0312 37.0187 43.0312 41.25Z" fill="#E97912"/>
    <path d="M35.2188 37.3438C32.5461 37.3438 30.5312 34.825 30.5312 31.4844C30.5312 29.1203 31.0641 26.4062 35.2188 26.4062C39.3734 26.4062 39.9063 29.1203 39.9063 31.4844C39.9063 34.825 37.8914 37.3438 35.2188 37.3438ZM35.2188 27.9688C32.8531 27.9688 32.0938 28.8227 32.0938 31.4844C32.0938 33.568 33.1891 35.7812 35.2188 35.7812C37.2484 35.7812 38.3438 33.568 38.3438 31.4844C38.3438 28.8227 37.5844 27.9688 35.2188 27.9688Z" fill="#E97912"/>
</svg>
