<svg width="176" height="126" viewBox="0 0 176 126" fill="none" xmlns="http://www.w3.org/2000/svg">
<path fill-rule="evenodd" clip-rule="evenodd" d="M111.941 99.5416C108.151 99.5416 105.849 97.7547 105.849 95.5887V93.8965H106.08C107.244 94.9931 108.895 95.6429 111.779 95.6429C114.5 95.6429 116.287 94.3162 116.287 91.5952V89.1584C115.732 90.5528 114.283 91.8794 112.036 91.8794C107.758 91.8794 104.414 89.4427 104.414 84.5557C104.414 80.0206 107.596 76 113.43 76C118.006 76 120.619 78.694 120.619 83.6216V91.6899C120.632 96.6176 116.964 99.5416 111.941 99.5416ZM112.821 79.8582C110.588 79.8582 108.895 81.7399 108.895 84.3661C108.895 86.6404 110.29 88.3191 112.361 88.3191C114.527 88.3191 116.084 86.6946 116.084 83.9059C116.097 81.1984 114.73 79.8582 112.821 79.8582ZM31.5288 94.1945H30.6488C26.5064 94.1945 23.65 91.866 23.65 88.6576C23.65 85.544 25.9242 83.175 32.341 83.175H33.8572V82.9448C33.8572 80.481 32.693 79.7364 30.0938 79.7364C26.9531 79.7364 25.2068 80.9413 24.557 81.74H24.3945V80.3456C24.3945 78.3962 26.1408 76.0678 30.7436 76.0678C34.6288 76.0678 38.135 77.8818 38.135 83.906V87.9266C38.1486 91.6223 35.4275 94.1945 31.5288 94.1945ZM33.8978 86.275H32.341C29.0379 86.275 28.0902 87.0467 28.0902 88.4816C28.0902 89.8489 29.1868 90.6476 31.1091 90.6476C32.9908 90.6476 33.8978 89.7406 33.8978 87.9537V86.275ZM19.7647 93.8967C18.1808 93.8967 17.1384 93.0574 17.1384 91.3381C17.1384 89.5918 16.8406 84.6641 16.5563 81.9702C16.2991 82.62 15.9742 83.4593 15.6222 84.5017C15.5625 84.6822 15.4932 84.8932 15.4158 85.1292L15.4156 85.1299C14.6861 87.3531 13.2296 91.7919 12.116 93.8967H11.1819C9.7199 93.8967 8.69105 92.7595 7.45914 89.1315C7.29817 88.6525 7.09734 88.0038 6.87251 87.2777C6.32213 85.5 5.62791 83.2577 5.0224 81.9025C4.60274 85.5305 4.27784 90.7831 4.27784 93.8967H2.62627C1.25898 93.8967 0 92.9626 0 91.3381C0 86.6406 0.974697 80.2915 1.78694 76.3927H3.37083C7.08724 76.3927 8.49559 80.7204 9.54203 83.9359L9.54205 83.9359L9.54208 83.936L9.54214 83.9362C9.6735 84.3399 9.79916 84.726 9.92296 85.0838C10.0712 85.5058 10.1859 85.935 10.3003 86.3633C10.4574 86.9518 10.6142 87.5385 10.857 88.1026C11.6693 85.7065 12.7388 82.62 13.6187 80.4269C14.2956 78.7077 15.2973 77.1508 16.0554 76.4063H16.9624C19.2638 76.4063 20.3062 77.8006 20.5905 80.1291C21.0507 83.9196 21.5922 89.2669 21.6599 93.8967H19.7647ZM49.0598 80.0208H51.659C53.473 80.0208 54.6101 78.8295 54.6237 77.6247V76.3927H41.8849C40.1657 76.3927 39.1233 77.6247 39.1233 78.8566V80.0208H44.7278V90.7831C44.7278 92.8272 45.9326 93.8967 48.0038 93.8967H49.0598V80.0208ZM63.6532 94.2487C60.1876 94.2487 56.1669 93.1521 56.1669 88.3463V76.3927H56.9115C59.443 76.3927 60.5125 77.4622 60.5125 79.5064V82.5794C61.1352 82.2274 62.5837 81.6047 63.9104 81.6047C68.0934 81.6047 70.9092 84.3663 70.9092 87.9943C70.9092 91.663 68.1882 94.2487 63.6532 94.2487ZM63.2335 84.9484C62.1852 84.9484 61.2483 85.4186 60.6001 85.7438L60.5125 85.7877V88.4817C60.5125 90.1603 62.2588 90.8101 63.6938 90.8101C65.413 90.8101 66.5096 89.7678 66.5096 87.8996C66.5096 86.0585 65.0746 84.9484 63.2335 84.9484ZM79.6409 85.9637C79.6409 91.4058 82.3213 94.1268 88.2236 94.1268C90.9041 94.1268 93.5303 93.5718 95.0059 93.125V79.5064C95.0059 77.4622 93.9365 76.3927 91.4049 76.3927H90.6604V90.1062C90.146 90.2416 89.1713 90.4311 88.007 90.4311C85.3808 90.4311 83.9864 89.1721 83.9864 86.1262V79.5199C83.9864 77.4757 82.917 76.4063 80.3854 76.4063H79.6409V85.9637ZM123.719 85.9637C123.719 91.4058 126.399 94.1268 132.302 94.1268C134.982 94.1268 137.608 93.5718 139.084 93.125V79.5064C139.084 77.4622 138.014 76.3927 135.483 76.3927H134.738V90.1062C134.224 90.2416 133.249 90.4311 132.085 90.4311C129.459 90.4311 128.064 89.1721 128.064 86.1262V79.5199C128.064 77.4757 126.995 76.4063 124.463 76.4063H123.719V85.9637ZM153.23 80.0208H150.631V93.8967H149.562C147.491 93.8967 146.286 92.8272 146.286 90.7831V80.0208H140.681V78.8566C140.681 77.6247 141.724 76.3927 143.443 76.3927H156.182V77.6247C156.182 78.8295 155.045 80.0208 153.23 80.0208ZM167.594 90.7831C167.594 92.8273 168.799 93.8967 170.87 93.8967V93.8832H171.845V77.1915C170.166 76.5417 167.052 76.0273 164.494 76.0273C160.581 76.0273 157.305 77.6788 157.305 81.4423C157.305 84.1362 159.228 85.9502 160.811 86.1804C159.58 86.5323 158.727 88.1568 158.375 88.9691C158.05 89.7813 156.696 92.5294 155.884 93.2469V93.5718C156.398 93.8967 157.833 94.0862 158.51 94.0862C160.952 94.0862 161.703 92.2132 162.529 90.1511C162.605 89.9613 162.682 89.7699 162.761 89.5783C163.411 88.0215 164.358 87.8049 165.13 87.6695C165.572 87.6152 166.126 87.5609 166.627 87.5116C167.001 87.475 167.345 87.4412 167.594 87.4123V90.7831ZM165.157 79.5741C165.78 79.5741 167.242 79.8042 167.594 79.899V84.1768C166.781 84.2716 165.55 84.3393 164.805 84.3393C163.086 84.3393 161.759 83.4052 161.759 81.8755C161.759 79.6418 163.411 79.5741 165.157 79.5741Z" fill="#4A3942"/>
<path d="M5.368 107.612V107.007H2.002C1.1 107.007 0.715 107.348 0.715 108.14V113.53C0.715 114.19 1.155 114.542 1.595 114.542H2.2V108.327H4.543C5.115 108.327 5.368 107.92 5.368 107.612ZM11.8693 111.396C11.8693 109.9 10.7473 108.47 9.17426 108.47C7.08426 108.47 6.20426 109.834 6.20426 111.803V115.389C6.20426 116.027 6.71026 116.412 7.23826 116.412H7.70026C7.70026 116.412 7.70026 114.619 7.70026 113.794C7.99726 114.3 8.53626 114.674 9.19626 114.674C10.9233 114.674 11.8693 113.299 11.8693 111.396ZM10.3513 111.781C10.3513 112.727 9.85626 113.365 9.14126 113.365C8.26126 113.365 7.67826 112.694 7.67826 111.506C7.67826 110.483 8.12926 109.779 8.94326 109.779C9.88926 109.779 10.3513 110.384 10.3513 111.781ZM17.7335 109.295C17.7335 108.811 17.5135 108.602 17.0405 108.602H16.4025C16.2705 109.812 15.7315 111.605 15.2475 112.716C14.7085 111.671 14.2685 110.439 14.0595 109.295C13.9825 108.877 13.6085 108.602 13.2015 108.602H12.4205C12.6185 109.999 13.7405 112.947 14.5215 114.124C14.2025 114.96 14.0155 115.18 13.4765 115.213L12.6405 115.268V115.554C12.6405 116.104 13.1245 116.467 13.6745 116.467C14.7415 116.467 15.3245 115.862 16.4245 113.266C16.6995 112.628 17.7335 109.922 17.7335 109.295ZM23.8365 114.542V111.275C23.8365 109.042 22.5935 108.503 21.0865 108.503C20.3935 108.503 19.2275 108.679 18.6115 108.877V113.486C18.6115 114.179 19.0185 114.542 19.7225 114.542H20.0855V109.911C20.4595 109.812 20.7125 109.757 21.0975 109.757C21.9885 109.757 22.3625 110.186 22.3625 111.22V113.486C22.3625 114.179 22.7695 114.542 23.4735 114.542H23.8365ZM30.4322 114.542V111.275C30.4322 109.042 29.1892 108.503 27.6822 108.503C26.9892 108.503 25.8232 108.679 25.2072 108.877V113.486C25.2072 114.179 25.6142 114.542 26.3182 114.542H26.6812V109.911C27.0552 109.812 27.3082 109.757 27.6932 109.757C28.5842 109.757 28.9582 110.186 28.9582 111.22V113.486C28.9582 114.179 29.3652 114.542 30.0692 114.542H30.4322ZM39.0079 114.542V109.658C39.0079 108.965 38.6449 108.602 37.7869 108.602H37.5339V113.486C37.5339 114.179 37.9409 114.542 38.6449 114.542H39.0079ZM36.7529 112.54C36.7529 111.308 35.7959 110.373 34.3769 110.373C33.9259 110.373 33.4309 110.582 33.2219 110.703V109.658C33.2219 108.965 32.8589 108.602 32.0009 108.602H31.7479V112.661C31.7479 114.289 33.1119 114.663 34.2889 114.663C35.8289 114.663 36.7529 113.783 36.7529 112.54ZM35.2569 112.507C35.2569 113.145 34.8829 113.497 34.2999 113.497C33.8159 113.497 33.3099 113.299 33.2219 112.815V111.792C33.4419 111.682 33.7719 111.506 34.1459 111.506C34.7729 111.506 35.2569 111.88 35.2569 112.507ZM48.4001 113.849C48.0371 113.728 47.7951 113.618 47.2561 113.079C46.7281 112.54 46.2661 111.935 45.7931 111.352C46.4091 110.571 47.7841 109.009 48.2021 108.657V108.602H47.3551C46.8821 108.602 46.5301 108.657 46.1781 108.987C45.4961 109.636 44.9351 110.395 44.3631 111.143V109.581C44.3631 109.009 44.0661 108.602 43.3511 108.602H42.8781V113.497C42.8781 114.19 43.2081 114.542 43.8901 114.542H44.3631V111.638C45.0121 112.507 45.6721 113.387 46.4311 114.168C46.6841 114.421 47.0691 114.575 47.3991 114.575C48.0041 114.575 48.2461 114.322 48.4001 113.849ZM54.6185 111.473C54.6185 109.9 53.5955 108.47 51.8135 108.47C49.8995 108.47 48.8765 109.9 48.8765 111.682C48.8765 113.255 49.8995 114.674 51.6815 114.674C53.5955 114.674 54.6185 113.255 54.6185 111.473ZM53.0895 111.682C53.0895 112.65 52.6715 113.354 51.8135 113.354C50.8345 113.354 50.4055 112.65 50.4055 111.473C50.4055 110.494 50.8345 109.79 51.6815 109.79C52.6495 109.79 53.0895 110.494 53.0895 111.682ZM62.9297 114.542C62.9077 112.969 62.7207 111.154 62.5667 109.867C62.4677 109.075 62.1157 108.602 61.3347 108.602H61.0267C60.7737 108.855 60.4327 109.383 60.2017 109.966C59.9047 110.714 59.5417 111.759 59.2667 112.573C59.1237 112.243 59.0687 111.891 58.9477 111.55C58.5737 110.461 58.1447 108.602 56.7257 108.602H56.1867C55.9117 109.922 55.5817 112.078 55.5817 113.673C55.5817 114.223 56.0107 114.542 56.4727 114.542H57.0337C57.0337 113.486 57.1437 111.704 57.2867 110.472C57.5727 111.121 57.9247 112.364 58.1117 112.925C58.5297 114.157 58.8817 114.542 59.3767 114.542H59.6957C60.1137 113.75 60.6747 111.99 60.8837 111.352C61.0047 111 61.1147 110.714 61.2027 110.494C61.3017 111.407 61.4007 113.079 61.4007 113.673C61.4007 114.256 61.7527 114.542 62.2917 114.542H62.9297ZM69.3941 114.542V111.275C69.3941 109.042 68.1511 108.503 66.6441 108.503C65.9511 108.503 64.7851 108.679 64.1691 108.877V113.486C64.1691 114.179 64.5761 114.542 65.2801 114.542H65.6431V109.911C66.0171 109.812 66.2701 109.757 66.6551 109.757C67.5461 109.757 67.9201 110.186 67.9201 111.22V113.486C67.9201 114.179 68.3271 114.542 69.0311 114.542H69.3941ZM75.4178 112.518V111.154C75.4178 109.108 74.2298 108.492 72.9098 108.492C71.3478 108.492 70.7538 109.284 70.7538 109.944V110.417H70.8088C71.0288 110.142 71.6228 109.735 72.6898 109.735C73.5698 109.735 73.9658 109.988 73.9658 110.824V110.901H73.4488C71.2708 110.901 70.5008 111.704 70.5008 112.76C70.5008 113.849 71.4688 114.641 72.8768 114.641H73.1738C74.4938 114.641 75.4178 113.772 75.4178 112.518ZM73.9768 112.529C73.9768 113.134 73.6688 113.442 73.0308 113.442C72.3818 113.442 72.0078 113.167 72.0078 112.705C72.0078 112.221 72.3268 111.957 73.4488 111.957H73.9768V112.529ZM81.8121 114.542V109.658C81.8121 108.965 81.4491 108.602 80.5911 108.602H80.3381V110.879H78.0611V109.658C78.0611 108.965 77.6981 108.602 76.8401 108.602H76.5871V113.486C76.5871 114.179 76.9941 114.542 77.6981 114.542H78.0611V112.023H80.3381V113.486C80.3381 114.179 80.7451 114.542 81.4491 114.542H81.8121ZM88.4172 114.278V109.658C88.4172 108.965 88.0542 108.602 87.1962 108.602H86.9432V113.255C86.7672 113.299 86.4372 113.365 86.0412 113.365C85.1502 113.365 84.6772 112.936 84.6772 111.902V109.658C84.6772 108.965 84.3142 108.602 83.4562 108.602H83.2032V111.847C83.2032 113.695 84.1162 114.619 86.1182 114.619C87.0312 114.619 87.9222 114.432 88.4172 114.278ZM93.9239 106.831V106.611C93.6049 106.963 93.0769 107.315 92.3839 107.315C91.6799 107.315 91.2069 106.996 90.8329 106.622V106.776C90.8329 107.766 91.4819 108.261 92.3729 108.261C93.2639 108.261 93.9239 107.755 93.9239 106.831ZM95.0129 114.278V109.537C95.0129 108.888 94.6499 108.602 94.0559 108.602H93.5389V113.255C93.3629 113.299 93.0329 113.365 92.6369 113.365C91.7459 113.365 91.2729 112.936 91.2729 111.902V109.515C91.2729 108.855 91.0199 108.602 90.3819 108.602H89.7989V111.847C89.7989 113.695 90.7119 114.619 92.7139 114.619C93.6269 114.619 94.5179 114.432 95.0129 114.278ZM102.892 113.739L101.671 111.649L102.892 109.57H102.639C101.957 109.57 101.671 109.757 101.484 110.054L100.505 111.649L101.484 113.233C101.704 113.585 102.034 113.739 102.639 113.739H102.892ZM100.824 113.739L99.4931 111.649L100.824 109.57H100.571C99.8891 109.57 99.6141 109.768 99.4161 110.054L98.3271 111.649L99.4161 113.233C99.6581 113.574 99.9661 113.739 100.571 113.739H100.824ZM112.442 114.542C112.442 113.035 112.222 109.757 112.079 108.569C111.958 107.535 111.408 107.007 110.572 107.007H110.396C110.088 107.26 109.604 108.019 109.219 109.218L108.35 111.891C108.273 112.144 108.196 112.375 108.141 112.661C108.075 112.32 107.943 111.869 107.712 111.231L106.667 108.283C106.381 107.48 105.644 107.007 104.599 107.007H104.28C104.005 108.503 103.675 111.858 103.675 113.541C103.675 114.179 104.06 114.542 104.621 114.542H105.149C105.149 113.167 105.281 110.142 105.479 109.064C105.589 109.328 105.765 109.779 105.897 110.164L106.975 113.343C107.25 114.157 107.69 114.542 108.185 114.542H108.592C108.801 114.245 109.032 113.739 109.208 113.2L110.264 109.966C110.374 109.625 110.517 109.317 110.616 109.075C110.737 109.823 110.902 112.584 110.902 113.541C110.902 114.223 111.298 114.542 111.87 114.542H112.442ZM118.408 112.518V111.154C118.408 109.108 117.22 108.492 115.9 108.492C114.338 108.492 113.744 109.284 113.744 109.944V110.417H113.799C114.019 110.142 114.613 109.735 115.68 109.735C116.56 109.735 116.956 109.988 116.956 110.824V110.901H116.439C114.261 110.901 113.491 111.704 113.491 112.76C113.491 113.849 114.459 114.641 115.867 114.641H116.164C117.484 114.641 118.408 113.772 118.408 112.518ZM116.967 112.529C116.967 113.134 116.659 113.442 116.021 113.442C115.372 113.442 114.998 113.167 114.998 112.705C114.998 112.221 115.317 111.957 116.439 111.957H116.967V112.529ZM124.175 109.02V108.602H119.852C119.269 108.602 118.917 109.02 118.917 109.438V109.834H120.82V113.486C120.82 114.179 121.227 114.542 121.931 114.542H122.294V109.834H123.174C123.79 109.834 124.175 109.427 124.175 109.02ZM129.909 112.54C129.909 111.308 128.952 110.373 127.533 110.373C127.082 110.373 126.587 110.582 126.378 110.703V109.658C126.378 108.965 126.015 108.602 125.157 108.602H124.904V112.661C124.904 114.289 126.268 114.663 127.445 114.663C128.985 114.663 129.909 113.783 129.909 112.54ZM128.413 112.507C128.413 113.145 128.039 113.497 127.456 113.497C126.972 113.497 126.378 113.277 126.378 112.705V111.792C126.598 111.682 126.928 111.506 127.302 111.506C127.929 111.506 128.413 111.88 128.413 112.507ZM138.508 114.278V109.658C138.508 108.965 138.145 108.602 137.287 108.602H137.034V113.255C136.858 113.299 136.528 113.365 136.132 113.365C135.241 113.365 134.768 112.936 134.768 111.902V109.658C134.768 108.965 134.405 108.602 133.547 108.602H133.294V111.847C133.294 113.695 134.207 114.619 136.209 114.619C137.122 114.619 138.013 114.432 138.508 114.278ZM147.63 113.794V111.055C147.63 109.383 146.739 108.47 145.188 108.47C143.208 108.47 142.13 109.834 142.13 111.374C142.13 113.035 143.263 113.86 144.715 113.86C145.474 113.86 145.969 113.409 146.156 112.936V113.761C146.156 114.685 145.551 115.136 144.627 115.136C143.648 115.136 143.087 114.916 142.691 114.542H142.614V115.114C142.614 115.851 143.395 116.456 144.682 116.456C146.387 116.456 147.63 115.466 147.63 113.794ZM146.09 111.154C146.09 112.1 145.562 112.65 144.825 112.65C144.121 112.65 143.648 112.078 143.648 111.308C143.648 110.417 144.22 109.779 144.979 109.779C145.628 109.779 146.09 110.23 146.09 111.154ZM154.213 114.278V109.658C154.213 108.965 153.85 108.602 152.992 108.602H152.739V113.255C152.563 113.299 152.233 113.365 151.837 113.365C150.946 113.365 150.473 112.936 150.473 111.902V109.658C150.473 108.965 150.11 108.602 149.252 108.602H148.999V111.847C148.999 113.695 149.912 114.619 151.914 114.619C152.827 114.619 153.718 114.432 154.213 114.278ZM160.237 109.02V108.602H155.914C155.331 108.602 154.979 109.02 154.979 109.438V109.834H156.882V113.486C156.882 114.179 157.289 114.542 157.993 114.542H158.356V109.834H159.236C159.852 109.834 160.237 109.427 160.237 109.02ZM165.894 114.542V108.877C165.322 108.657 164.266 108.481 163.397 108.481C162.066 108.481 160.955 109.042 160.955 110.318C160.955 111.231 161.604 111.847 162.143 111.924C161.725 112.045 161.439 112.595 161.318 112.87C161.208 113.145 160.746 114.08 160.471 114.322V114.432C160.647 114.542 161.131 114.608 161.362 114.608C162.264 114.608 162.484 113.849 162.803 113.079C163.023 112.551 163.342 112.474 163.606 112.43C163.87 112.397 164.244 112.364 164.442 112.342V113.486C164.442 114.179 164.849 114.542 165.553 114.542H165.894ZM164.442 111.242C164.167 111.275 163.749 111.297 163.496 111.297C162.913 111.297 162.462 110.978 162.462 110.461C162.462 109.702 163.023 109.68 163.617 109.68C163.826 109.68 164.321 109.757 164.442 109.79V111.242ZM168.921 113.739H169.174C169.779 113.739 170.087 113.574 170.329 113.233L171.418 111.649L170.329 110.054C170.131 109.768 169.856 109.57 169.174 109.57H168.921L170.252 111.649L168.921 113.739ZM166.853 113.739H167.106C167.711 113.739 168.041 113.585 168.261 113.233L169.24 111.649L168.261 110.054C168.074 109.757 167.788 109.57 167.106 109.57H166.853L168.074 111.649L166.853 113.739Z" fill="#463B3F"/>
<path fill-rule="evenodd" clip-rule="evenodd" d="M98.1998 22.1C98.6601 22.0865 99.0392 22.4385 99.0392 22.8852C99.0392 23.332 98.6601 23.6975 98.1998 23.711C97.7396 23.7245 97.3605 23.3726 97.3605 22.9258C97.3605 22.4926 97.7396 22.1136 98.1998 22.1ZM94.0168 28.219C93.0014 31.2108 88.0332 35.3938 91.025 40.2538C96.3723 40.6734 103.845 38.9542 109.07 35.7593L109.125 35.7323C108.827 34.6087 107.473 33.0519 106.295 32.1584C104.684 30.9671 102.843 30.4391 101.476 30.9129C100.19 31.3597 99.6483 32.6051 99.892 34.1348C99.9056 34.2567 99.9462 34.3921 99.9732 34.5274C100.176 35.3938 99.6889 34.7846 99.6213 34.5139C99.5671 34.3921 99.5265 34.2567 99.4859 34.1348C98.9038 32.3479 99.3505 30.7776 100.826 30.2225C102.234 29.6946 104.21 30.2225 105.916 31.4544C105.618 30.8317 105.375 30.1548 105.199 29.3697C104.874 27.9076 104.969 26.432 104.928 24.9835C104.833 21.5721 103.073 18.7428 99.1339 19C97.1981 19.1218 95.533 20.3131 94.5989 22.1677C94.0574 23.0341 92.4058 22.9935 92.2975 23.332C92.1757 23.5892 93.1504 24.239 93.6919 24.8888C94.4906 25.8635 94.3552 27.2172 94.0168 28.219ZM65.0737 5.27299C63.7741 4.75856 62.5963 4.014 61.6758 3.29652C61.581 3.22883 61.6352 3.07992 61.7705 3.12053C63.923 3.52666 66.4816 3.43189 68.4986 2.99869C74.2521 -0.250295 80.8583 -1.38745 85.7183 2.28121C90.6865 6.01754 90.7542 12.6509 86.3004 17.9305C85.2039 19.2301 87.5729 21.5044 87.1397 22.0594C87.0044 22.2219 86.4087 22.073 85.6777 21.8428C84.0532 21.3284 82.5505 20.7328 80.8177 20.6922C77.0408 20.5974 74.6311 23.0612 74.9966 26.6351C75.6058 32.8623 84.8113 33.2143 87.8166 39.983C78.3675 38.724 72.3704 31.8876 63.7605 30.0465C61.053 29.4644 58.4132 29.6539 56.0983 31.1295C53.5804 32.7405 52.9441 36.1925 52.9577 39.3603C51.9559 35.1908 51.7257 32.5239 52.3349 26.4591C52.9441 20.5568 57.2761 10.6474 65.0737 5.27299ZM81.9413 13.5444C82.6588 13.5173 83.2274 14.0588 83.2139 14.7492C83.2139 15.4396 82.6318 16.0082 81.9143 16.0353C81.2103 16.0623 80.6282 15.5208 80.6418 14.8304C80.6553 14.14 81.2374 13.5579 81.9413 13.5444ZM117.856 29.8164C118.601 32.6457 115.555 37.5734 113.944 39.0625C104.292 47.9972 88.0467 50.0684 76.5941 46.4945C75.687 46.129 75.5517 46.8601 76.567 47.1443C94.5853 53.0873 110.14 45.3168 115.568 38.8188C116.272 50.7724 95.3164 57.9337 83.9449 57.0267C83.1733 57.2027 83.6741 57.487 84.175 57.5005C97.7125 59.0573 109.111 51.8825 111.791 48.7688C107.568 57.1891 96.6972 63.5788 86.1515 63.9849C61.8111 64.6889 48.4767 40.511 55.7193 33.7287C57.2761 32.2667 59.591 31.7387 62.109 31.7929C67.6052 31.9824 72.4381 35.1772 77.65 37.8577C84.175 41.2014 90.5106 42.2844 98.0103 40.9442C106.228 39.4551 112.441 35.6104 117.856 29.8164Z" fill="#E64F25"/>
</svg>
